<svg width="22" height="20" viewBox="0 0 22 20" fill="none" xmlns="http://www.w3.org/2000/svg">
<g id="noto-v1:copyright" clip-path="url(#clip0_12_210)">
<g id="Group">
<path id="Vector" d="M10.5694 0.0437012C4.83105 0.0437012 0.177429 4.50151 0.177429 9.99995C0.177429 15.4984 4.83105 19.9546 10.5694 19.9546C16.3093 19.9546 20.9613 15.4984 20.9613 9.99995C20.9613 4.50151 16.3093 0.0437012 10.5694 0.0437012ZM10.5694 19.0015C5.38726 19.0015 1.17242 14.964 1.17242 10.0015C1.17242 5.03589 5.38726 0.998389 10.5694 0.998389C15.7515 0.998389 19.9663 5.03589 19.9663 9.99995C19.9663 14.964 15.7515 19.0015 10.5694 19.0015Z" fill="#40C0E7"/>
<path id="Vector_2" d="M14.2135 11.9578C14.204 11.9402 14.1906 11.9249 14.1742 11.9127C14.1579 11.9006 14.139 11.892 14.1189 11.8875C14.0765 11.8797 14.0341 11.8875 14.0015 11.914C13.2561 12.4797 11.9756 12.9062 11.023 12.9062C9.17986 12.9062 7.89127 11.7109 7.89127 9.99998C7.89127 8.28904 9.17986 7.09373 11.023 7.09373C12.0197 7.09373 13.0424 7.40154 13.6916 7.89685C13.7242 7.92185 13.7666 7.93123 13.8074 7.92341C13.8482 7.9156 13.8824 7.8906 13.9036 7.85623L15.3798 5.27966C15.414 5.22185 15.3977 5.14998 15.3439 5.10935C14.2282 4.26248 12.8091 3.84998 11.01 3.84998C7.17683 3.84998 4.39575 6.43748 4.39575 10.0031C4.39575 13.5687 7.17683 16.1562 11.01 16.1562C12.7635 16.1562 14.2788 15.6453 15.5119 14.6359C15.5608 14.5953 15.5755 14.5281 15.5462 14.4719L14.2135 11.9578Z" fill="#40C0E7"/>
</g>
</g>
<defs>
<clipPath id="clip0_12_210">
<rect width="20.8785" height="20" fill="white" transform="translate(0.130371)"/>
</clipPath>
</defs>
</svg>
