<svg width="32" height="30" viewBox="0 0 32 30" fill="none" xmlns="http://www.w3.org/2000/svg">
<g id="devicon:facebook">
<path id="Vector" d="M28.649 1.13208H2.88773C2.00535 1.13208 1.29004 1.81729 1.29004 2.66255V27.3399C1.29004 28.1851 2.00535 28.8704 2.88773 28.8704H28.649C29.5314 28.8704 30.2467 28.1851 30.2467 27.3399V2.66255C30.2467 1.81729 29.5314 1.13208 28.649 1.13208Z" fill="#3D5A98"/>
<path id="Vector_2" d="M21.2673 28.868V18.1266H25.0303L25.5931 13.9407H21.2673V11.2688C21.2673 10.0571 21.6196 9.22974 23.4326 9.22974H25.7472V5.47974C24.6264 5.36784 23.5001 5.31464 22.3732 5.32036C19.0408 5.32036 16.7458 7.26568 16.7458 10.854V13.9407H12.9828V18.1266H16.7458V28.868H21.2673Z" fill="white"/>
</g>
</svg>
