<svg width="33" height="30" viewBox="0 0 33 30" fill="none" xmlns="http://www.w3.org/2000/svg">
<g id="skill-icons:instagram" clip-path="url(#clip0_12_193)">
<g id="Group">
<path id="Vector" d="M24.8429 0H8.20538C4.15157 0 0.865295 3.148 0.865295 7.03125V22.9688C0.865295 26.852 4.15157 30 8.20538 30H24.8429C28.8967 30 32.183 26.852 32.183 22.9688V7.03125C32.183 3.148 28.8967 0 24.8429 0Z" fill="url(#paint0_radial_12_193)"/>
<path id="Vector_2" d="M24.8429 0H8.20538C4.15157 0 0.865295 3.148 0.865295 7.03125V22.9688C0.865295 26.852 4.15157 30 8.20538 30H24.8429C28.8967 30 32.183 26.852 32.183 22.9688V7.03125C32.183 3.148 28.8967 0 24.8429 0Z" fill="url(#paint1_radial_12_193)"/>
<path id="Vector_3" d="M16.5252 3.28125C13.2029 3.28125 12.7858 3.2952 11.481 3.35203C10.1786 3.40922 9.28962 3.60668 8.51181 3.89648C7.70709 4.19578 7.02459 4.59621 6.34465 5.24777C5.6641 5.89922 5.24608 6.55301 4.93266 7.32352C4.62927 8.06883 4.42289 8.92078 4.36429 10.1678C4.30594 11.4178 4.29065 11.8174 4.29065 15.0001C4.29065 18.1828 4.30533 18.581 4.36454 19.8309C4.42448 21.0785 4.63062 21.9301 4.93291 22.6752C5.2456 23.4461 5.66361 24.0998 6.34379 24.7512C7.02361 25.4031 7.70612 25.8045 8.51022 26.1038C9.28864 26.3936 10.1778 26.591 11.4799 26.6482C12.7848 26.705 13.2015 26.719 16.5238 26.719C19.8465 26.719 20.2622 26.705 21.567 26.6482C22.8694 26.591 23.7594 26.3936 24.5378 26.1038C25.3421 25.8045 26.0237 25.4031 26.7034 24.7512C27.3839 24.0998 27.8018 23.4461 28.1154 22.6755C28.4161 21.9301 28.6226 21.0783 28.6837 19.8312C28.7423 18.5812 28.7576 18.1828 28.7576 15.0001C28.7576 11.8174 28.7423 11.418 28.6837 10.168C28.6226 8.92043 28.4161 8.06895 28.1154 7.32387C27.8018 6.55301 27.3839 5.89922 26.7034 5.24777C26.0229 4.59598 25.3424 4.19555 24.5371 3.8966C23.7572 3.60668 22.8677 3.4091 21.5653 3.35203C20.2604 3.2952 19.8449 3.28125 16.5214 3.28125H16.5252ZM15.4278 5.39309C15.7535 5.39262 16.117 5.39309 16.5252 5.39309C19.7917 5.39309 20.1788 5.40434 21.4687 5.46047C22.6614 5.51273 23.3088 5.70363 23.7401 5.86406C24.311 6.07641 24.718 6.33035 25.1459 6.74063C25.5741 7.15078 25.8391 7.54137 26.0614 8.08828C26.2288 8.50078 26.4284 9.12094 26.4827 10.2635C26.5413 11.4989 26.554 11.8699 26.554 14.9974C26.554 18.1249 26.5413 18.4961 26.4827 19.7313C26.4281 20.8739 26.2288 21.4941 26.0614 21.9067C25.8397 22.4536 25.5741 22.843 25.1459 23.2529C24.7178 23.6631 24.3112 23.9169 23.7401 24.1294C23.3093 24.2905 22.6614 24.4809 21.4687 24.5332C20.179 24.5893 19.7917 24.6015 16.5252 24.6015C13.2586 24.6015 12.8715 24.5893 11.5819 24.5332C10.3892 24.4805 9.74177 24.2896 9.31017 24.1291C8.73936 23.9167 8.33149 23.6629 7.90332 23.2527C7.47515 22.8425 7.21017 22.4529 6.98789 21.9057C6.82041 21.4931 6.62088 20.873 6.56657 19.7304C6.50797 18.495 6.49622 18.124 6.49622 14.9945C6.49622 11.8651 6.50797 11.496 6.56657 10.2606C6.62113 9.11801 6.82041 8.49785 6.98789 8.08477C7.20968 7.53785 7.47515 7.14727 7.90344 6.73711C8.33161 6.32695 8.73936 6.07301 9.31029 5.8602C9.74152 5.69906 10.3892 5.50863 11.5819 5.45613C12.7105 5.40727 13.1478 5.39262 15.4278 5.39016V5.39309ZM23.0555 7.33887C22.245 7.33887 21.5874 7.96816 21.5874 8.74465C21.5874 9.52102 22.245 10.1509 23.0555 10.1509C23.8659 10.1509 24.5235 9.52102 24.5235 8.74465C24.5235 7.96828 23.8659 7.3384 23.0555 7.3384V7.33887ZM16.5252 8.98195C13.0558 8.98195 10.2429 11.6766 10.2429 15.0001C10.2429 18.3237 13.0558 21.017 16.5252 21.017C19.9948 21.017 22.8068 18.3237 22.8068 15.0001C22.8068 11.6767 19.9945 8.98195 16.525 8.98195H16.5252ZM16.5252 11.0938C18.7773 11.0938 20.6031 12.8426 20.6031 15.0001C20.6031 17.1574 18.7773 18.9064 16.5252 18.9064C14.273 18.9064 12.4474 17.1574 12.4474 15.0001C12.4474 12.8426 14.273 11.0938 16.5252 11.0938Z" fill="white"/>
</g>
</g>
<defs>
<radialGradient id="paint0_radial_12_193" cx="0" cy="0" r="1" gradientUnits="userSpaceOnUse" gradientTransform="translate(9.18406 32.3106) rotate(-90) scale(29.7322 28.868)">
<stop stop-color="#FFDD55"/>
<stop offset="0.1" stop-color="#FFDD55"/>
<stop offset="0.5" stop-color="#FF543E"/>
<stop offset="1" stop-color="#C837AB"/>
</radialGradient>
<radialGradient id="paint1_radial_12_193" cx="0" cy="0" r="1" gradientUnits="userSpaceOnUse" gradientTransform="translate(-4.38054 2.16105) rotate(78.1975) scale(13.3134 57.0914)">
<stop stop-color="#3771C8"/>
<stop offset="0.128" stop-color="#3771C8"/>
<stop offset="1" stop-color="#6600FF" stop-opacity="0"/>
</radialGradient>
<clipPath id="clip0_12_193">
<rect width="31.3177" height="30" fill="white" transform="translate(0.865295)"/>
</clipPath>
</defs>
</svg>
