<svg width="32" height="30" viewBox="0 0 32 30" fill="none" xmlns="http://www.w3.org/2000/svg">
<g id="logos:whatsapp-icon" clip-path="url(#clip0_12_189)">
<path id="Vector" d="M1.29056 14.8205C1.28982 17.3411 1.98273 19.8022 3.30027 21.9715L1.16455 29.3834L9.1447 27.3946C11.3519 28.5367 13.8249 29.1351 16.338 29.1353H16.3446C24.6407 29.1353 31.394 22.7186 31.3975 14.8318C31.3991 11.01 29.8347 7.41631 26.9924 4.71258C24.1505 2.0091 20.371 0.519444 16.344 0.5177C8.04687 0.5177 1.2941 6.93398 1.29068 14.8205" fill="url(#paint0_linear_12_189)"/>
<path id="Vector_2" d="M0.753152 14.8158C0.752295 17.4271 1.47003 19.9763 2.83456 22.2233L0.622253 29.9008L8.88854 27.8407C11.1662 29.021 13.7306 29.6434 16.34 29.6443H16.3467C24.9405 29.6443 31.9363 22.9969 31.94 14.8277C31.9414 10.8686 30.3207 7.1457 27.3769 4.34512C24.4326 1.54488 20.5179 0.00162791 16.3467 0C7.75144 0 0.756577 6.64651 0.753152 14.8158ZM5.67591 21.8363L5.36725 21.3706C4.06977 19.4097 3.38494 17.1436 3.38592 14.8167C3.38873 8.02663 9.20257 2.50233 16.3516 2.50233C19.8137 2.50372 23.0673 3.78651 25.5145 6.11395C27.9615 8.44163 29.3081 11.5358 29.3072 14.8267C29.304 21.6169 23.4901 27.1419 16.3467 27.1419H16.3415C14.0156 27.1407 11.7344 26.547 9.74501 25.425L9.27157 25.1581L4.36619 26.3806L5.67591 21.8362V21.8363Z" fill="url(#paint1_linear_12_189)"/>
<path id="Vector_3" d="M12.4493 8.62189C12.1574 8.00526 11.8502 7.99282 11.5727 7.982C11.3454 7.9727 11.0855 7.9734 10.8259 7.9734C10.5661 7.9734 10.1439 8.06631 9.78707 8.43666C9.42985 8.80735 8.42328 9.70317 8.42328 11.5251C8.42328 13.3472 9.81949 15.1081 10.0141 15.3554C10.209 15.6022 12.7095 19.4608 16.6697 20.9453C19.961 22.1789 20.6308 21.9335 21.3451 21.8717C22.0596 21.81 23.6504 20.9761 23.975 20.1113C24.2998 19.2467 24.2998 18.5055 24.2024 18.3506C24.105 18.1963 23.8452 18.1036 23.4555 17.9185C23.0658 17.7333 21.1503 16.8374 20.7932 16.7137C20.4359 16.5903 20.1762 16.5286 19.9164 16.8994C19.6566 17.2697 18.9104 18.1036 18.683 18.3506C18.4558 18.5982 18.2284 18.629 17.8389 18.4437C17.449 18.2579 16.1942 17.8674 14.7055 16.6058C13.5473 15.6242 12.7653 14.412 12.538 14.0412C12.3107 13.671 12.5137 13.4703 12.709 13.2857C12.8841 13.1198 13.0988 12.8533 13.2938 12.6371C13.4881 12.4208 13.5529 12.2665 13.6828 12.0196C13.8129 11.7724 13.7478 11.5561 13.6505 11.3708C13.5529 11.1856 12.7958 9.3541 12.4493 8.62189Z" fill="white"/>
</g>
<defs>
<linearGradient id="paint0_linear_12_189" x1="1512.81" y1="2887.09" x2="1512.81" y2="0.5177" gradientUnits="userSpaceOnUse">
<stop stop-color="#1FAF38"/>
<stop offset="1" stop-color="#60D669"/>
</linearGradient>
<linearGradient id="paint1_linear_12_189" x1="1566.51" y1="2990.08" x2="1566.51" y2="0" gradientUnits="userSpaceOnUse">
<stop stop-color="#F9F9F9"/>
<stop offset="1" stop-color="white"/>
</linearGradient>
<clipPath id="clip0_12_189">
<rect width="31.3177" height="30" fill="white" transform="translate(0.622253)"/>
</clipPath>
</defs>
</svg>
